<svg id="Layer_1" enable-background="new 0 0 512.002 512.002" height="512" viewBox="0 0 512.002 512.002" width="512" xmlns="http://www.w3.org/2000/svg"><g><path d="m481.721 428.34c2.923-5.906 4.567-12.553 4.567-19.577v-17.144c0-20.982-14.667-38.602-34.286-43.147v-21.14c0-16.542-13.458-30-30-30h-156.001v-28.048c69.788-5.134 125-63.557 125-134.633-7.416-179.097-262.612-179.043-270.001.001 0 71.075 55.213 129.498 125.001 134.632v28.048h-156.001c-16.542 0-30 13.458-30 30v21.14c-19.62 4.545-34.286 22.165-34.286 43.147v17.144c0 7.024 1.644 13.671 4.567 19.577-18.777 13.032-30.281 34.715-30.281 57.565v15.749c0 5.523 4.477 10 10 10h120c5.523 0 10-4.477 10-10v-15.749c0-22.85-11.503-44.532-30.281-57.565 2.923-5.906 4.567-12.553 4.567-19.577v-17.144c0-20.981-14.667-38.601-34.286-43.147v-21.14c0-5.514 4.486-10 10-10h156.001v31.14c-19.619 4.545-34.286 22.165-34.286 43.147v17.144c0 7.024 1.644 13.671 4.567 19.577-18.778 13.032-30.282 34.715-30.282 57.565v15.749c0 5.523 4.477 10 10 10h120c5.523 0 10-4.477 10-10v-15.749c0-22.85-11.504-44.533-30.281-57.565 2.923-5.906 4.567-12.553 4.567-19.577v-17.144c0-20.982-14.667-38.602-34.286-43.147v-31.14h156.001c5.514 0 10 4.486 10 10v21.14c-19.619 4.545-34.286 22.165-34.286 43.147v17.144c0 7.024 1.644 13.671 4.567 19.577-18.778 13.032-30.281 34.715-30.281 57.565v15.749c0 5.523 4.477 10 10 10h120c5.523 0 10-4.477 10-10v-15.749c.001-22.85-11.503-44.533-30.28-57.565zm-340.721-293.689c0-63.412 51.589-115 115-115 152.564 6.317 152.52 223.707 0 230.001-63.411-.001-115-51.589-115-115.001zm-21 351.254v5.749h-100v-5.749c0-16.855 8.79-32.833 23.032-42.037 15.074 12.139 38.866 12.137 53.937 0 14.241 9.204 23.031 25.182 23.031 42.037zm-25.714-94.286v17.144c-1.338 32.226-47.246 32.202-48.572 0v-17.144c0-13.391 10.895-24.286 24.286-24.286 13.392 0 24.286 10.895 24.286 24.286zm211.715 94.286v5.749h-100.001v-5.749c0-16.855 8.79-32.833 23.032-42.037 15.074 12.139 38.866 12.137 53.937 0 14.242 9.204 23.032 25.182 23.032 42.037zm-25.714-94.286v17.144c-1.338 32.226-47.246 32.202-48.572 0v-17.144c0-13.391 10.895-24.286 24.286-24.286 13.391 0 24.286 10.895 24.286 24.286zm137.429 0c0-13.391 10.895-24.286 24.286-24.286 13.391 0 24.286 10.895 24.286 24.286v17.144c-1.338 32.226-47.246 32.202-48.572 0zm74.286 100.034h-100v-5.749c0-16.855 8.79-32.833 23.032-42.037 15.074 12.139 38.866 12.137 53.937 0 14.241 9.204 23.031 25.183 23.031 42.037z"/><path d="m326.001 197.506v-15.749c0-22.85-11.504-44.533-30.281-57.565 2.923-5.906 4.567-12.553 4.567-19.577v-17.143c-2.439-58.765-86.154-58.72-88.572 0v17.144c0 7.024 1.644 13.671 4.567 19.577-18.778 13.032-30.282 34.715-30.282 57.565v15.749c0 5.523 4.477 10 10 10h120c5.524-.001 10.001-4.478 10.001-10.001zm-94.286-110.034c0-13.391 10.895-24.286 24.286-24.286 13.391 0 24.286 10.895 24.286 24.286v17.144c-1.338 32.226-47.246 32.202-48.572 0zm74.286 100.034h-100.001v-5.749c0-16.855 8.79-32.833 23.032-42.037 15.074 12.139 38.866 12.137 53.937 0 14.241 9.204 23.031 25.183 23.031 42.037v5.749z"/></g></svg>