<svg xmlns="http://www.w3.org/2000/svg" xmlns:xlink="http://www.w3.org/1999/xlink" width="64" height="64" viewBox="0 0 64 64">
    <defs>
        <path id="a" d="M.008 0H64v43.355H.008z"/>
    </defs>
    <g fill="none" fill-rule="evenodd">
        <path fill="#F5A623" d="M18.58 64h26.84V.005H18.58z"/>
        <path fill="#2D2E2C" d="M50.58 28.903h4.13V26.84h-4.13v2.064zm-2.064 2.065h8.258v-6.194h-8.258v6.194zM50.58 37.161h4.13v-2.064h-4.13v2.064zm-2.064 2.065h8.258v-6.194h-8.258v6.194zM50.58 45.42h4.13v-2.065h-4.13v2.064zm-2.064 2.064h8.258V41.29h-8.258v6.194zM50.58 53.677h4.13v-2.064h-4.13v2.064zm-2.064 2.065h8.258v-6.194h-8.258v6.194zM9.29 28.903h4.13V26.84H9.29v2.064zm-2.064 2.065h8.258v-6.194H7.226v6.194zM9.29 37.161h4.13v-2.064H9.29v2.064zm-2.064 2.065h8.258v-6.194H7.226v6.194zM9.29 45.42h4.13v-2.065H9.29v2.064zm-2.064 2.064h8.258V41.29H7.226v6.194zM9.29 53.677h4.13v-2.064H9.29v2.064zm-2.064 2.065h8.258v-6.194H7.226v6.194zM24.774 14.452v-2.065h6.194V6.194h2.064v6.193h6.194v2.065h-6.194v6.193h-2.064v-6.193h-6.194zm4.13 8.258h6.193v-6.194h6.193v-6.193h-6.193V4.129h-6.194v6.194H22.71v6.193h6.193v6.194zM24.774 28.903h4.13V26.84h-4.13v2.064zm-2.064 2.065h8.258v-6.194H22.71v6.194zM35.097 28.903h4.129V26.84h-4.13v2.064zm-2.065 2.065h8.258v-6.194h-8.258v6.194zM24.774 37.161h4.13v-2.064h-4.13v2.064zm-2.064 2.065h8.258v-6.194H22.71v6.194z"/>
        <g transform="translate(0 20.645)">
            <mask id="b" fill="#fff">
                <use xlink:href="#a"/>
            </mask>
            <path fill="#2D2E2C" d="M35.097 16.516h4.129v-2.064h-4.13v2.064zm-2.065 2.065h8.258v-6.194h-8.258v6.194z" mask="url(#b)"/>
            <path fill="#2D2E2C" d="M25.806 41.29h5.162V25.806h-5.162V41.29zm7.226 0h5.162V25.806h-5.162V41.29zm28.903 0V0H45.42v2.065h14.452V41.29H40.258V25.806h1.032v-2.064H22.71v2.064h1.032V41.29H4.129V2.065h14.452V0H2.065v41.29H0v2.065h64V41.29h-2.065z" mask="url(#b)"/>
        </g>
    </g>
</svg>
